<?xml version="1.0" standalone="no"?>
<!DOCTYPE svg PUBLIC "-//W3C//DTD SVG 20010904//EN"
 "http://www.w3.org/TR/2001/REC-SVG-20010904/DTD/svg10.dtd">
<svg version="1.0" xmlns="http://www.w3.org/2000/svg"
 width="512.000000pt" height="512.000000pt" viewBox="0 0 512.000000 512.000000"
 preserveAspectRatio="xMidYMid meet">
<metadata>
Created by potrace 1.14, written by Peter Selinger 2001-2017
</metadata>
<g transform="translate(0.000000,512.000000) scale(0.100000,-0.100000)"
fill="#000000" stroke="none">
<path d="M1474 4628 c-69 -18 -294 -279 -457 -529 -250 -383 -429 -854 -506
-1329 -10 -62 -15 -98 -25 -172 -27 -198 -28 -577 -2 -704 91 -442 383 -822
838 -1088 184 -107 437 -207 638 -251 115 -25 170 -36 209 -41 25 -3 57 -7 71
-9 129 -23 524 -23 635 -1 12 2 48 7 80 11 70 9 68 8 165 30 239 53 558 177
693 269 21 14 40 26 43 26 9 0 137 91 204 145 294 238 498 552 566 869 26 122
29 156 29 346 -1 210 -10 331 -41 535 -102 672 -392 1295 -825 1770 -94 104
-125 126 -178 127 -50 0 -76 -16 -151 -95 -191 -204 -366 -451 -494 -698 -26
-48 -33 -55 -55 -52 -111 14 -181 18 -356 18 -176 0 -348 -10 -366 -21 -4 -2
-19 22 -35 54 -56 116 -210 357 -301 472 -79 100 -213 251 -261 293 -27 24
-79 36 -118 25z m-8 -2342 c-1 -255 -4 -467 -7 -470 -12 -12 -174 54 -244 99
-116 75 -224 193 -295 322 l-23 41 33 59 c104 184 263 320 446 383 49 16 89
30 90 30 0 0 0 -209 0 -464z m460 389 c126 -70 225 -163 309 -290 59 -88 64
-110 38 -153 -108 -177 -215 -283 -363 -357 -36 -18 -85 -38 -108 -45 -24 -6
-50 -14 -58 -17 -12 -4 -14 60 -14 459 0 256 2 467 5 470 8 8 137 -37 191 -67z
m1461 -862 c-6 -6 -129 38 -182 64 -141 72 -269 198 -358 354 l-26 46 50 85
c104 175 252 297 434 359 l80 27 3 -466 c1 -256 1 -467 -1 -469z m438 872 c50
-24 115 -64 146 -89 75 -59 168 -168 214 -251 l38 -67 -23 -41 c-68 -125 -174
-241 -283 -314 -63 -42 -174 -92 -237 -106 l-26 -6 0 465 0 466 40 -6 c23 -4
82 -27 131 -51z"/>
</g>
</svg>
